<svg xmlns="http://www.w3.org/2000/svg" viewBox="0 0 300 129">
  <title>
    logo-snappcar
  </title>
  <g id="page-1" fill="none" fill-rule="evenodd">
    <g id="snappy-left">
      <path id="Shape" fill="#F47922" d="M146.35 36.2c0-14.08-11.4-25.5-25.48-25.5h-3.5c-14.06 0-25.47 11.42-25.47 25.5v37.9h54.45V36.2z" />
      <path id="Shape" fill="#FFF" d="M116.7 33.73c0 5.47 4.63 9.9 10.35 9.9 5.73 0 10.36-4.43 10.36-9.9 0-5.47-4.62-9.9-10.35-9.9-5.72 0-10.36 4.43-10.36 9.9" />
      <path id="Shape" fill="#FFF" d="M102.1 33.77c0 4.43 3.76 8 8.38 8 4.63 0 8.38-3.57 8.38-8 0-4.4-3.75-8-8.38-8-4.62 0-8.37 3.6-8.37 8" />
      <path id="Shape" fill="#231F20" d="M107.94 36.26c0 2.04 1.73 3.7 3.86 3.7s3.86-1.66 3.86-3.7c0-2.03-1.73-3.68-3.86-3.68s-3.86 1.65-3.86 3.68M125.45 38.2c0 2.04 1.72 3.7 3.85 3.7s3.86-1.66 3.86-3.7c0-2.03-1.73-3.68-3.86-3.68s-3.85 1.65-3.85 3.7" />
      <path id="Shape" fill="#FFF" d="M136.82 47.65c.4 2.68-1.08 5.58-3.87 7.05-2.78 1.47-6 1.06-8-.8 2.05.12 4.44-.4 6.74-1.6 2.3-1.22 4.07-2.9 5.12-4.65" />
    </g>
    <path id="wheel" fill="#231F20" d="M242.85 66.5c-1.1.6-2.33.66-3.2 0-.62-.5-.93-1.27-.92-2.14-1.2.52-2.47.5-3.4-.2-.77-.62-1.14-1.6-1.1-2.7-1.05.3-2.1.2-2.88-.4-.9-.7-1.25-1.88-1.08-3.16-.67.1-1.32 0-1.83-.4-1-.77-1.12-2.3-.42-3.73-6.54-3.35-14.14-5.26-22.24-5.26-8.26 0-16 2-22.64 5.47.6 1.36.43 2.8-.52 3.53-.5.4-1.16.5-1.83.4.17 1.28-.18 2.47-1.08 3.15-.8.6-1.84.72-2.88.4.04 1.1-.33 2.1-1.12 2.7-.9.7-2.18.73-3.38.2 0 .88-.3 1.66-.94 2.15-.76.6-1.82.6-2.82.17-1.58 2.3-2.9 4.75-3.86 7.35h14.76c1.3-1.9 2.9-3.66 4.8-5.26 5.33-4.42 12.95-7.32 21.5-7.3 8.54-.02 16.16 2.87 21.5 7.3 1.9 1.6 3.5 3.37 4.8 5.26h14.76c-1-2.67-2.36-5.2-4-7.53" />
    <g id="snappy-right">
      <path id="Shape" fill="#019EDB" d="M243.83 60.6c-.62-.47-1.45-.57-2.27-.34.2-1.28-.15-2.48-1.05-3.18-.77-.6-1.8-.7-2.83-.4.04-1.07-.32-2.04-1.1-2.65-.87-.66-2.05-.7-3.2-.25V26.12c0-14.42-11.7-26.12-26.1-26.12h-3.58c-14.42 0-26.1 11.7-26.1 26.12v27.64c-1.13-.43-2.28-.38-3.13.27-.78.6-1.14 1.58-1.1 2.65-1.03-.3-2.07-.2-2.84.4-.9.7-1.24 1.9-1.05 3.18-.83-.23-1.65-.13-2.27.35-1.24.98-1.2 3.13.08 4.8 1.3 1.68 3.35 2.25 4.6 1.28.63-.48.93-1.25.93-2.1 1.2.5 2.44.48 3.34-.22.78-.6 1.14-1.57 1.1-2.65 1.03.32 2.07.22 2.84-.38.9-.68 1.23-1.86 1.06-3.1.66.1 1.3-.02 1.8-.4.94-.73 1.1-2.15.5-3.5 6.54-3.42 14.18-5.36 22.32-5.37 7.98 0 15.47 1.88 21.9 5.2-.67 1.4-.54 2.9.44 3.66.5.4 1.14.5 1.8.4-.18 1.26.17 2.44 1.06 3.12.77.6 1.8.7 2.84.4-.04 1.07.32 2.04 1.1 2.64.9.7 2.14.73 3.33.2 0 .87.3 1.64.92 2.12 1.26.97 3.32.4 4.6-1.28 1.3-1.67 1.33-3.82.08-4.8" />
      <path id="Shape" fill="#FFF" d="M209.28 22.48c0 5.43-4.4 9.84-9.83 9.84-5.42 0-9.82-4.4-9.82-9.84 0-5.44 4.4-9.84 9.82-9.84 5.43 0 9.83 4.4 9.83 9.84" />
      <path id="Shape" fill="#FFF" d="M223.5 22.54c0 4.4-3.55 7.96-7.94 7.96-4.4 0-7.94-3.57-7.94-7.96 0-4.4 3.55-7.95 7.94-7.95 4.4 0 7.94 3.55 7.94 7.94" />
      <path id="Shape" fill="#231F20" d="M217.85 25.54c0 2.03-1.64 3.67-3.66 3.67-2.03 0-3.67-1.63-3.67-3.66 0-2.02 1.64-3.66 3.66-3.66 2 0 3.65 1.64 3.65 3.66M202.3 27c0 2.02-1.65 3.67-3.66 3.67-2.03 0-3.66-1.65-3.66-3.67s1.63-3.66 3.66-3.66c2 0 3.65 1.64 3.65 3.66" />
      <path id="Shape" fill="#FFF" d="M188.72 35c-.4 2.67 1.07 5.55 3.84 7 2.77 1.47 5.98 1.07 7.94-.78-2.03.12-4.4-.4-6.68-1.6-2.28-1.2-4.05-2.87-5.1-4.6" />
    </g>
    <g id="text" fill="#231F20">
      <path id="Shape" d="M270.7 83.44h8.78v3.5c.9-1.7 2.54-4.58 7.94-4.58v9.42h-.34c-4.78 0-7.04 1.75-7.04 6.15v16.8h-9.35v-31.3zM101.68 114.75h-9.35v-3.4c-1.7 3.06-5.58 4.47-9.24 4.47-9.93 0-15.73-7.8-15.73-16.76 0-10.26 7.38-16.7 15.72-16.7 5.12 0 8 2.5 9.23 4.4v-3.32h9.35v31.3zM76.73 99.23c0 2.88 2.14 7.84 7.77 7.84 3.33 0 5.35-1.58 6.54-3.5.78-1.24 1.18-2.6 1.3-4 .1-1.4-.18-2.82-.8-4.12-1-2.14-3.15-4.34-7.1-4.34-5.35 0-7.7 4.52-7.7 8.08v.05zM227.1 99.12c-2.43 9.87-11 16.42-21.08 16.42-13.07 0-21.97-10.44-21.97-21.72 0-10.66 8.22-21.6 21.86-21.6 13.08 0 20.06 10.1 21.2 16.63h-11.17c-1.18-3.1-4.33-7.28-10.08-7.28-7.15 0-11.16 6.26-11.16 12.2 0 6.3 4.28 12.4 11.2 12.4 6.65 0 9.36-5.6 10.03-7.05h11.16zM164.1 106.84c-4.27 0-7.73-3.46-7.73-7.73 0-4.25 3.46-7.7 7.72-7.7 4.25 0 7.7 3.45 7.7 7.7 0 4.28-3.45 7.74-7.7 7.74m1.24-24.48c-4.8 0-7.88 2.15-9.9 4.5v-3.42h-8.8v41.74H156v-13.25c1.12 1.18 3.76 3.9 9.4 3.9 8.9 0 15.2-7.4 15.2-16.43 0-7.28-4.16-17.04-15.26-17.04M125.5 106.84c-4.25 0-7.7-3.46-7.7-7.73 0-4.25 3.45-7.7 7.7-7.7 4.27 0 7.73 3.45 7.73 7.7 0 4.28-3.46 7.74-7.72 7.74m1.14-24.48c-4.8 0-7.9 2.15-9.9 4.5v-3.42h-8.8v41.74h9.35v-13.25c1.12 1.18 3.76 3.9 9.4 3.9 8.9 0 15.2-7.4 15.2-16.43 0-7.28-4.16-17.04-15.26-17.04M264.5 114.75h-9.36v-3.4c-1.7 3.06-5.57 4.47-9.24 4.47-9.9 0-15.7-7.8-15.7-16.76 0-10.26 7.36-16.7 15.7-16.7 5.13 0 8 2.5 9.24 4.4v-3.32h9.36v31.3zm-24.96-15.52c0 2.88 2.14 7.84 7.77 7.84 3.33 0 5.36-1.58 6.55-3.5.8-1.24 1.18-2.6 1.3-4 .1-1.4-.18-2.82-.8-4.12-1-2.14-3.15-4.34-7.1-4.34-5.35 0-7.7 4.52-7.7 8.08v.05zM33.8 83.44h8.73v3.32c1.07-1.52 3.04-4.4 8.62-4.4 10.54 0 11.6 8.58 11.6 12.8v19.58H53.4v-17.1c0-3.43-.73-6.47-4.9-6.47-4.62 0-5.35 3.32-5.35 6.54v17.04H33.8v-31.3zM10.7 100.92c0 4.85 3 5.7 4.34 5.7 2.53 0 4.06-2.1 4.06-4 0-2.2-1.75-2.88-8.17-5.6C8 95.86.73 92.93.73 85.08c0-8.4 7.6-12.86 14.6-12.86 5.74 0 13.85 2.94 14.02 12.98H18.8c-.2-1.4-.55-4.06-3.82-4.06-1.86 0-3.66 1.3-3.66 3.27 0 1.9 1.13 2.42 8.62 5.8 7.78 3.5 9.75 7.1 9.75 11.96 0 6.66-3.5 13.37-14.55 13.37-10.93 0-15.32-6.43-15.04-14.6h10.6zM295.48 86.5h.38c.45 0 .8-.15.8-.5 0-.33-.22-.54-.73-.54-.2 0-.36 0-.44.03l-.02 1zm-.04 1.94h-.8l.02-3.48c.32-.04.77-.1 1.34-.1.66 0 .95.1 1.2.3.2.14.34.4.34.73 0 .42-.32.7-.73.8v.06c.35.1.52.38.62.85.1.54.2.73.25.86h-.85c-.1-.14-.16-.43-.27-.86-.06-.36-.27-.53-.7-.53h-.4v1.37zm-2.12-1.82c-.02 1.55 1.14 2.8 2.7 2.8 1.5.04 2.65-1.2 2.66-2.74 0-1.54-1.12-2.8-2.67-2.82-1.5 0-2.67 1.24-2.68 2.76zm6.25.05c-.02 1.95-1.6 3.5-3.6 3.47-1.98 0-3.56-1.57-3.54-3.52 0-1.95 1.6-3.47 3.63-3.45 1.97 0 3.52 1.55 3.5 3.5z" />
    </g>
    <path id="Shape" fill="#F47922" d="M125.5 91.4c-4.25 0-7.7 3.45-7.7 7.7 0 4.28 3.45 7.74 7.7 7.74 4.27 0 7.73-3.46 7.73-7.73 0-4.25-3.46-7.7-7.72-7.7" />
    <path id="Shape" fill="#019EDB" d="M164.1 91.4c-4.27 0-7.73 3.45-7.73 7.7 0 4.28 3.46 7.74 7.72 7.74 4.25 0 7.7-3.46 7.7-7.73 0-4.25-3.45-7.7-7.7-7.7" />
  </g>
</svg>
